<svg xmlns="http://www.w3.org/2000/svg" version="1.1" xmlns:xlink="http://www.w3.org/1999/xlink" xmlns:svgjs="http://svgjs.dev/svgjs" width="2000" height="560" viewBox="0 0 2000 560"><g transform="matrix(1,0,0,1,-1.2121212121212466,-0.3512021216496919)"><svg viewBox="0 0 396 111" data-background-color="#ffffff" preserveAspectRatio="xMidYMid meet" height="560" width="2000" xmlns="http://www.w3.org/2000/svg" xmlns:xlink="http://www.w3.org/1999/xlink"><g id="tight-bounds" transform="matrix(1,0,0,1,0.2400000000000091,0.06961327768414094)"><svg viewBox="0 0 395.52 110.86077344463172" height="110.86077344463172" width="395.52"><g><svg viewBox="0 0 546.2583844202283 153.11141534547298" height="110.86077344463172" width="395.52"><g transform="matrix(1,0,0,1,150.73838442022824,41.046176858635555)"><svg viewBox="0 0 395.52 71.01906162820187" height="71.01906162820187" width="395.52"><g id="textblocktransform"><svg viewBox="0 0 395.52 71.01906162820187" height="71.01906162820187" width="395.52" id="textblock"><g><svg viewBox="0 0 395.52 71.01906162820187" height="71.01906162820187" width="395.52"><g transform="matrix(1,0,0,1,0,0)"><svg width="395.52" viewBox="-0.25 -34.6 197.13 35.4" height="71.01906162820187" data-palette-color="#6b7280"><path d="M25.3 0L18.15 0 16.6-7.9 8.3-7.9 6.75 0-0.25 0 8.3-34.6 16.8-34.6 25.3 0ZM12.45-29.35L9.3-13.05 15.6-13.05 12.45-29.35ZM27.7-34.6L34.8-34.6 34.8 0 27.7 0 27.7-34.6ZM72.84 0L65.29 0 59.39-13.7 58.94-13.7 56.79-13.7 56.79 0 49.69 0 49.69-34.6 58.39-34.6Q71.04-34.6 71.04-24.3L71.04-24.3Q71.04-21.2 69.72-18.78 68.39-16.35 65.64-15.05L65.64-15.05 72.84 0ZM58.64-18.65Q61.39-18.65 62.59-20 63.79-21.35 63.79-24.3L63.79-24.3Q63.79-27 62.52-28.28 61.24-29.55 58.34-29.55L58.34-29.55 56.79-29.55 56.79-18.65 58.64-18.65ZM94.79-13.85Q94.79-13.3 94.64-11.2L94.64-11.2 81.09-11.2Q81.29-7.3 82.47-5.8 83.64-4.3 85.74-4.3L85.74-4.3Q87.19-4.3 88.44-4.83 89.69-5.35 91.14-6.45L91.14-6.45 93.94-2.7Q90.34 0.8 85.29 0.8L85.29 0.8Q79.94 0.8 77.09-2.85 74.24-6.5 74.24-13.05L74.24-13.05Q74.24-19.6 76.94-23.45 79.64-27.3 84.69-27.3L84.69-27.3Q89.44-27.3 92.12-23.88 94.79-20.45 94.79-13.85L94.79-13.85ZM88.19-15.4L88.19-15.8Q88.19-19.4 87.39-21.03 86.59-22.65 84.74-22.65L84.74-22.65Q83.04-22.65 82.17-21.05 81.29-19.45 81.09-15.4L81.09-15.4 88.19-15.4ZM106.29-27.3Q108.74-27.3 110.81-26.48 112.89-25.65 114.44-24.1L114.44-24.1 111.89-20.4Q109.19-22.35 106.84-22.35L106.84-22.35Q105.49-22.35 104.74-21.68 103.99-21 103.99-19.75L103.99-19.75Q103.99-18.9 104.36-18.32 104.74-17.75 105.69-17.18 106.64-16.6 108.59-15.8L108.59-15.8Q111.99-14.45 113.59-12.63 115.19-10.8 115.19-7.7L115.19-7.7Q115.19-3.75 112.44-1.48 109.69 0.8 105.39 0.8L105.39 0.8Q102.64 0.8 100.29-0.2 97.94-1.2 96.24-3L96.24-3 99.44-6.55Q102.44-4.1 105.09-4.1L105.09-4.1Q106.59-4.1 107.44-4.9 108.29-5.7 108.29-7.1L108.29-7.1Q108.29-8.65 107.39-9.53 106.49-10.4 103.69-11.5L103.69-11.5Q100.24-12.9 98.76-14.7 97.29-16.5 97.29-19.3L97.29-19.3Q97.29-21.55 98.36-23.38 99.44-25.2 101.49-26.25 103.54-27.3 106.29-27.3L106.29-27.3ZM137.29-26.5L137.29 0 131.34 0 131.04-3.2Q128.59 0.8 124.69 0.8L124.69 0.8Q121.79 0.8 120.11-1.28 118.44-3.35 118.44-6.7L118.44-6.7 118.44-26.5 125.24-26.5 125.24-7.05Q125.24-4.3 127.09-4.3L127.09-4.3Q128.99-4.3 130.49-7.5L130.49-7.5 130.49-26.5 137.29-26.5ZM166.63-27.3Q169.23-27.3 170.83-25.23 172.43-23.15 172.43-19.75L172.43-19.75 172.43 0 165.78 0 165.78-19.05Q165.78-20.7 165.36-21.4 164.93-22.1 164.13-22.1L164.13-22.1Q162.38-22.1 160.78-18.8L160.78-18.8 160.78 0 154.18 0 154.18-19.05Q154.18-22.1 152.48-22.1L152.48-22.1Q150.68-22.1 149.08-18.8L149.08-18.8 149.08 0 142.43 0 142.43-26.5 148.38-26.5 148.78-23.15Q150.03-25.15 151.56-26.23 153.08-27.3 155.03-27.3L155.03-27.3Q156.88-27.3 158.21-26.18 159.53-25.05 160.23-22.95L160.23-22.95Q162.88-27.3 166.63-27.3L166.63-27.3ZM196.88-13.85Q196.88-13.3 196.73-11.2L196.73-11.2 183.18-11.2Q183.38-7.3 184.56-5.8 185.73-4.3 187.83-4.3L187.83-4.3Q189.28-4.3 190.53-4.83 191.78-5.35 193.23-6.45L193.23-6.45 196.03-2.7Q192.43 0.8 187.38 0.8L187.38 0.8Q182.03 0.8 179.18-2.85 176.33-6.5 176.33-13.05L176.33-13.05Q176.33-19.6 179.03-23.45 181.73-27.3 186.78-27.3L186.78-27.3Q191.53-27.3 194.21-23.88 196.88-20.45 196.88-13.85L196.88-13.85ZM190.28-15.4L190.28-15.8Q190.28-19.4 189.48-21.03 188.68-22.65 186.83-22.65L186.83-22.65Q185.13-22.65 184.26-21.05 183.38-19.45 183.18-15.4L183.18-15.4 190.28-15.4Z" opacity="1" transform="matrix(1,0,0,1,0,0)" fill="#6b7280" class="wordmark-text-0" data-fill-palette-color="primary" id="text-0"></path></svg></g></svg></g></svg></g></svg></g><g><svg viewBox="0 0 133.97248842728885 153.11141534547298" height="153.11141534547298" width="133.97248842728885"><g><svg xmlns="http://www.w3.org/2000/svg" xmlns:xlink="http://www.w3.org/1999/xlink" version="1.1" x="0" y="0" viewBox="0 0 28 32" style="enable-background:new 0 0 28 32;" xml:space="preserve" height="153.11141534547298" width="133.97248842728885" class="icon-icon-0" data-fill-palette-color="accent" id="icon-0"><g fill="#1d4ed8" data-fill-palette-color="accent"><g fill="#1d4ed8" data-fill-palette-color="accent"><g fill="#1d4ed8" data-fill-palette-color="accent"><polygon points="9.815,21.969 11.702,21.969 10.798,19.994    " fill="#1d4ed8" data-fill-palette-color="accent"></polygon><path d="M23 15H1C0.45 15 0 15.45 0 16V26C0 26.55 0.45 27 1 27H23C23.551 27 24 26.55 24 26V16C24 15.45 23.551 15 23 15M12.622 23.729L12.269 23.025H9.319L8.975 23.729C8.847 24 8.551 24.057 8.264 24 8.008 23.855 7.848 23.568 8.008 23.232L10.302 18.747C10.518 18.323 11.094 18.307 11.294 18.747L13.548 23.232C13.876 23.855 12.909 24.352 12.622 23.729M15.559 23.512C15.559 24.176 14.504 24.192 14.504 23.512V18.948C14.504 18.292 15.559 18.268 15.559 18.948z" fill="#1d4ed8" data-fill-palette-color="accent"></path></g><path d="M27 7.586L20.414 1C19.836 0.42 18.82 0 18 0H7C5.346 0 4 1.346 4 3V13A1 1 0 1 0 6 13V3C6 2.449 6.448 2 7 2H16A2 2 0 0 1 18 4V7.75A2.257 2.257 0 0 0 20.25 10H24A2 2 0 0 1 26 12V29A1 1 0 0 1 25 30H7C6.448 30 6 29.551 6 29A1 1 0 1 0 4 29C4 30.654 5.346 32 7 32H25C26.654 32 28 30.654 28 29V10C28 9.181 27.58 8.165 27 7.586" fill="#1d4ed8" data-fill-palette-color="accent"></path></g></g></svg></g></svg></g></svg></g><defs></defs></svg><rect width="395.52" height="110.86077344463172" fill="none" stroke="none" visibility="hidden"></rect></g></svg></g></svg>